<svg width="26" height="25" viewBox="0 0 26 25" fill="none" xmlns="http://www.w3.org/2000/svg">
<path d="M12.8057 9.52344C12.217 9.52366 11.6416 9.69842 11.1523 10.0256C10.6629 10.3528 10.2816 10.8178 10.0565 11.3617C9.83136 11.9056 9.77257 12.5041 9.88755 13.0814C10.0025 13.6587 10.2861 14.189 10.7024 14.6051C11.1188 15.0213 11.6491 15.3047 12.2265 15.4195C12.8039 15.5342 13.4023 15.4752 13.9461 15.2499C14.4899 15.0246 14.9548 14.643 15.2818 14.1536C15.6088 13.6641 15.7833 13.0887 15.7833 12.5C15.7828 11.7106 15.4688 10.9536 14.9105 10.3955C14.3522 9.83739 13.5951 9.52373 12.8057 9.52344ZM19.7649 7.23549C19.6134 6.85147 19.3846 6.50269 19.0927 6.21077C18.8007 5.91886 18.452 5.69004 18.0679 5.5385C16.8961 5.07589 14.1059 5.17969 12.8057 5.17969C11.5054 5.17969 8.71805 5.07199 7.54283 5.5385C7.15881 5.69004 6.81003 5.91886 6.51811 6.21077C6.22619 6.50269 5.99737 6.85147 5.84584 7.23549C5.38379 8.40737 5.48703 11.2003 5.48703 12.4994C5.48703 13.7985 5.38379 16.5882 5.84807 17.764C5.99961 18.148 6.22843 18.4968 6.52034 18.7887C6.81226 19.0806 7.16104 19.3094 7.54506 19.4609C8.71694 19.9235 11.5071 19.8198 12.8079 19.8198C14.1087 19.8198 16.895 19.9275 18.0702 19.4609C18.4542 19.3094 18.803 19.0806 19.0949 18.7887C19.3868 18.4968 19.6156 18.148 19.7672 17.764C20.2331 16.5921 20.126 13.7991 20.126 12.5C20.126 11.2009 20.2331 8.41183 19.7672 7.23605L19.7649 7.23549ZM12.8057 17.0759C11.9006 17.0759 11.0159 16.8075 10.2634 16.3047C9.51093 15.8019 8.92443 15.0873 8.57809 14.2511C8.23175 13.415 8.14113 12.4949 8.3177 11.6073C8.49426 10.7197 8.93007 9.9043 9.57002 9.26435C10.21 8.6244 11.0253 8.18859 11.913 8.01203C12.8006 7.83547 13.7206 7.92609 14.5568 8.27243C15.3929 8.61876 16.1076 9.20527 16.6104 9.95777C17.1132 10.7103 17.3816 11.595 17.3816 12.5C17.3823 13.1011 17.2644 13.6965 17.0347 14.252C16.805 14.8075 16.468 15.3122 16.0429 15.7373C15.6179 16.1623 15.1132 16.4994 14.5577 16.7291C14.0021 16.9588 13.4068 17.0766 12.8057 17.0759ZM17.5702 8.80022C17.3589 8.80033 17.1523 8.73779 16.9766 8.62049C16.8009 8.50319 16.6639 8.33642 16.583 8.14127C16.5021 7.94611 16.4808 7.73134 16.522 7.52411C16.5631 7.31689 16.6648 7.12652 16.8142 6.97709C16.9635 6.82766 17.1538 6.72588 17.361 6.68463C17.5682 6.64337 17.783 6.66449 17.9782 6.74531C18.1734 6.82614 18.3403 6.96303 18.4577 7.13869C18.575 7.31435 18.6377 7.52087 18.6377 7.73214C18.6383 7.87244 18.6112 8.01147 18.5579 8.14127C18.5046 8.27106 18.4263 8.38906 18.3273 8.4885C18.2283 8.58794 18.1107 8.66686 17.9811 8.72074C17.8516 8.77461 17.7127 8.80238 17.5724 8.80246L17.5702 8.80022ZM22.6271 0H2.98424C2.27383 0 1.59253 0.282206 1.0902 0.784535C0.58787 1.28686 0.305664 1.96817 0.305664 2.67857L0.305664 22.3214C0.305664 23.0318 0.58787 23.7131 1.0902 24.2155C1.59253 24.7178 2.27383 25 2.98424 25H22.6271C23.3375 25 24.0188 24.7178 24.5211 24.2155C25.0235 23.7131 25.3057 23.0318 25.3057 22.3214V2.67857C25.3057 1.96817 25.0235 1.28686 24.5211 0.784535C24.0188 0.282206 23.3375 0 22.6271 0ZM21.6717 16.183C21.5997 17.6133 21.2733 18.8806 20.2292 19.9219C19.1851 20.9632 17.9189 21.2963 16.4904 21.3644C15.0166 21.4475 10.5981 21.4475 9.1243 21.3644C7.69406 21.2924 6.43122 20.9654 5.38546 19.9219C4.3397 18.8783 4.01102 17.6105 3.94294 16.183C3.85979 14.7087 3.85979 10.2896 3.94294 8.81696C4.01493 7.38672 4.33747 6.11942 5.38546 5.07812C6.43345 4.03683 7.69964 3.70759 9.1243 3.63951C10.5981 3.55636 15.0166 3.55636 16.4904 3.63951C17.9206 3.7115 19.1874 4.0385 20.2292 5.08203C21.2711 6.12556 21.6037 7.39341 21.6717 8.82366C21.7549 10.2924 21.7549 14.7076 21.6717 16.183Z" fill="#2D2D23"/>
</svg>
